<svg width="21" height="24" viewBox="0 0 21 24" fill="none" xmlns="http://www.w3.org/2000/svg">
<path d="M16.7893 0C14.7054 0 13.0071 1.69821 13.0071 3.7875C13.0071 4.70357 13.3393 5.59286 13.9446 6.28393C14.4804 6.9 15.2036 7.32321 15.9911 7.48929V9.79821L10.2857 12.7661L4.58571 9.79821V7.48929C6.31071 7.11964 7.56964 5.58214 7.56964 3.7875C7.56964 1.69821 5.87143 0 3.7875 0C1.70357 0 0 1.69821 0 3.7875C0 4.70357 0.332143 5.59286 0.9375 6.28393C1.47321 6.9 2.19643 7.32321 2.98393 7.48929V10.5643C2.98393 10.7089 3.06429 10.8375 3.19286 10.9018L9.4875 14.1589V16.5107C7.7625 16.8804 6.50357 18.4179 6.50357 20.2125C6.50357 22.3018 8.20179 24 10.2857 24C12.3696 24 14.0679 22.3018 14.0679 20.2125C14.0679 19.2964 13.7357 18.4071 13.1304 17.7161C12.5946 17.1 11.8714 16.6768 11.0839 16.5107V14.1589L17.3786 10.9018C17.5071 10.8375 17.5875 10.7089 17.5875 10.5643V7.48929C19.3125 7.11964 20.5714 5.58214 20.5714 3.7875C20.5714 1.69821 18.8732 0 16.7893 0ZM1.59643 3.7875C1.59643 2.58214 2.57679 1.60179 3.78214 1.60179C4.9875 1.60179 5.96786 2.58214 5.96786 3.7875C5.96786 4.99286 4.9875 5.97321 3.78214 5.97321C2.57679 5.97321 1.59643 4.99286 1.59643 3.7875ZM12.4714 20.2125C12.4714 21.4179 11.4911 22.3982 10.2857 22.3982C9.08036 22.3982 8.1 21.4179 8.1 20.2125C8.1 19.0071 9.08036 18.0268 10.2857 18.0268C11.4911 18.0268 12.4714 19.0071 12.4714 20.2125ZM16.7893 5.97857C15.5839 5.97857 14.6036 4.99821 14.6036 3.79286C14.6036 2.5875 15.5839 1.60714 16.7893 1.60714C17.9946 1.60714 18.975 2.5875 18.975 3.79286C18.975 4.99286 17.9946 5.97857 16.7893 5.97857Z" fill="white"/>
</svg>
